# xmcd
#
# Track frame offsets:
#	150
#	17025
#	30900
#	40372
#	50100
#	63000
#	75825
#	87575
#	99885
#	112050
#
# Disc length: 1629 seconds
#
# Revision: 7
# Processed by: cddbd v1.5.2PL0 Copyright (c) Steve Scherf et al.
# Submitted via: dBpowerAMP V4.0
#
DISCID=70065b0a
DTITLE=Patsy Cline - Sings Songs of Love
DYEAR=1995
DGENRE=Country
TTITLE0=Faded Love
TTITLE1=You Belong To Me
TTITLE2=Back In Baby's Arms
TTITLE3=True Love
TTITLE4=Someday (You'll Want Me To Love You)
TTITLE5=I Fall To Pieces
TTITLE6=Sweet Dreams (Of You)
TTITLE7=Crazy
TTITLE8=He Called Me Baby
TTITLE9=I Love You So Much (It Hurts)
EXTD=
EXTT0=
EXTT1=
EXTT2=
EXTT3=
EXTT4=
EXTT5=
EXTT6=
EXTT7=
EXTT8=
EXTT9=
PLAYORDER=
